<?xml version="1.0" standalone="no"?>
<!DOCTYPE svg PUBLIC "-//W3C//DTD SVG 20010904//EN"
 "http://www.w3.org/TR/2001/REC-SVG-20010904/DTD/svg10.dtd">
<svg version="1.0" xmlns="http://www.w3.org/2000/svg"
 width="891.000000pt" height="170.000000pt" viewBox="0 0 891.000000 170.000000"
 preserveAspectRatio="xMidYMid meet">

<g transform="translate(0.000000,170.000000) scale(0.100000,-0.100000)"
fill="#000000" stroke="none">
<path d="M120 850 l0 -670 670 0 670 0 0 655 c0 360 -3 662 -6 670 -5 13 -87
15 -670 15 l-664 0 0 -670z m534 344 c9 -24 2 -29 -68 -48 -92 -25 -101 -16
-26 27 73 41 85 44 94 21z m561 -28 c32 -14 34 -16 25 -48 -6 -18 -10 -34 -10
-36 0 -1 -11 5 -24 13 -30 20 -80 22 -101 5 -8 -7 -15 -25 -15 -41 0 -26 3
-29 33 -29 45 -1 118 -18 144 -35 31 -21 19 -51 -33 -76 -39 -19 -44 -24 -44
-55 0 -48 -24 -90 -63 -111 -39 -20 -120 -22 -166 -4 -32 14 -33 15 -26 59 6
43 6 45 -17 39 -13 -4 -42 -7 -65 -7 l-42 0 -12 -54 c-11 -52 -13 -54 -48 -59
-20 -2 -39 -3 -43 -1 -3 2 0 26 7 54 10 36 10 50 1 53 -7 3 -6 9 5 18 17 14
56 155 46 165 -3 3 -68 -2 -144 -11 -102 -12 -141 -21 -150 -33 -26 -33 -16
-42 52 -42 55 0 65 -3 65 -17 0 -37 -17 -47 -81 -48 -62 -1 -93 -19 -47 -28
21 -4 21 -4 -3 -6 -27 -1 -39 -21 -39 -66 0 -19 6 -20 69 -17 38 2 71 -1 74
-5 3 -4 3 -20 0 -36 l-5 -27 -123 0 -123 0 19 73 c10 39 19 77 19 83 0 6 -16
18 -35 27 -20 9 -38 24 -42 34 -8 20 26 49 77 64 35 11 38 15 49 65 18 80 23
83 148 81 l108 -2 -3 -25 c-6 -39 -18 -45 -95 -45 -62 -1 -72 -3 -75 -19 -4
-17 1 -18 39 -13 24 4 91 12 149 18 58 7 106 13 106 13 1 1 5 11 8 24 7 21 5
22 -54 22 l-60 0 6 28 c4 15 9 30 11 35 2 4 74 7 159 7 l154 0 -6 -27 c-10
-42 -11 -43 -68 -43 -45 0 -54 -3 -59 -20 -5 -19 0 -20 61 -20 l67 0 20 52
c15 38 29 56 55 70 42 22 98 23 145 4z m-1000 -596 c-5 -15 -2 -20 12 -21 17
-1 17 -2 1 -6 -26 -6 -22 -31 5 -36 19 -4 18 -4 -5 -6 -26 -1 -28 2 -28 37 0
35 6 52 17 52 3 0 1 -9 -2 -20z m609 -22 c-8 -56 -14 -61 -14 -11 0 34 6 53
16 53 2 0 1 -19 -2 -42z m163 -1 c2 -19 0 -38 -6 -42 -7 -4 -11 10 -11 41 0
53 10 53 17 1z m123 -7 c0 -36 -2 -40 -25 -40 -14 0 -25 6 -25 13 0 8 -4 7
-10 -3 -5 -8 -10 -12 -11 -7 -1 4 -3 12 -4 17 -1 6 -3 15 -4 20 -2 21 -20 9
-24 -17 -4 -26 -4 -26 -6 5 -1 26 3 32 19 32 10 0 24 -8 29 -17 10 -17 10 -17
11 0 0 10 8 17 20 17 11 0 20 5 20 10 0 6 2 10 5 10 3 0 5 -18 5 -40z m100 10
c-9 -5 -9 -9 -1 -14 6 -4 11 -14 11 -22 0 -12 -11 -14 -47 -12 -44 3 -48 5
-51 32 -2 18 0 26 7 21 7 -3 10 -14 9 -22 -2 -9 3 -18 10 -20 7 -3 12 5 12 21
0 18 4 24 14 20 8 -3 17 0 21 5 3 6 11 8 17 5 7 -4 6 -9 -2 -14z m32 -15 c-2
-15 0 -25 7 -25 6 0 11 11 11 25 0 20 5 25 24 25 17 0 27 -7 32 -22 l7 -23 9
24 c4 13 11 21 14 19 9 -10 -24 -78 -38 -78 -11 0 -11 2 0 9 10 6 11 13 1 35
-14 31 -35 29 -31 -2 3 -18 -2 -22 -22 -22 -23 0 -26 4 -26 36 0 19 4 33 9 30
4 -3 6 -17 3 -31z m-933 -7 c-1 -30 -2 -30 -8 -9 -9 35 -29 37 -34 4 -4 -27
-4 -27 -6 5 -1 28 2 32 24 32 22 0 25 -4 24 -32z m59 -5 c-3 -32 -7 -38 -28
-40 l-25 -2 25 8 c25 7 25 7 3 13 -17 4 -23 14 -23 32 0 21 5 26 26 26 23 0
25 -3 22 -37z m27 8 c-2 -35 -15 -36 -15 -2 0 18 4 30 8 27 5 -3 8 -14 7 -25z
m61 14 c6 -14 8 -13 20 2 11 15 16 16 33 5 13 -7 21 -8 21 -2 0 5 9 10 20 10
11 0 20 -6 20 -12 0 -10 2 -10 8 -1 9 15 101 15 120 1 8 -7 12 -7 12 1 0 6 12
11 26 11 23 0 25 -3 22 -37 -3 -32 -7 -38 -28 -40 -19 -2 -21 -1 -8 5 17 7 16
8 -2 20 -12 7 -20 8 -20 2 0 -5 -4 -10 -9 -10 -4 0 -8 10 -7 22 0 11 -5 23
-11 25 -8 3 -13 -4 -13 -19 0 -17 -6 -24 -20 -24 -14 0 -20 7 -20 24 0 30 -22
24 -31 -9 -5 -16 -7 -18 -8 -6 -1 10 -9 17 -21 17 -25 0 -26 -17 -2 -23 13 -4
12 -5 -4 -6 -12 0 -24 6 -28 14 -6 16 -46 21 -46 6 0 -5 10 -12 23 -14 19 -4
18 -4 -5 -6 -16 0 -28 4 -28 12 0 8 -3 8 -9 -2 -7 -11 -10 -9 -13 9 -5 34 -26
36 -31 3 -4 -27 -4 -27 -6 5 -1 26 3 32 19 32 11 0 23 -7 26 -15z m429 -15 c0
-18 -6 -26 -21 -28 -23 -3 -37 18 -27 44 10 25 48 13 48 -16z m39 22 c-7 -4
-14 -18 -17 -32 -4 -21 -4 -20 -6 8 -1 24 3 32 17 32 11 0 13 -3 6 -8z"/>
<path d="M911 1020 l-55 -5 -18 -74 c-11 -40 -17 -76 -14 -78 5 -6 137 11 224
28 l53 11 -38 42 c-21 23 -42 50 -48 59 -12 21 -33 24 -104 17z"/>
<path d="M1110 1011 c0 -4 18 -24 40 -46 l40 -39 35 17 c39 19 44 32 16 46
-23 13 -131 30 -131 22z"/>
<path d="M323 940 c-50 -22 -55 -44 -13 -65 42 -22 46 -20 59 29 17 67 18 66
-46 36z"/>
<path d="M1030 864 c-36 -8 -69 -16 -75 -18 -17 -5 59 -46 88 -46 32 0 67 31
67 60 0 11 -3 20 -7 19 -5 -1 -37 -7 -73 -15z"/>
<path d="M1075 540 c-7 -12 2 -30 16 -30 5 0 9 9 9 20 0 21 -15 27 -25 10z"/>
<path d="M1173 525 c0 -8 9 -15 20 -15 16 0 17 3 7 15 -7 8 -16 15 -20 15 -3
0 -7 -7 -7 -15z"/>
<path d="M335 540 c-7 -12 2 -30 16 -30 5 0 9 9 9 20 0 21 -15 27 -25 10z"/>
<path d="M630 534 c0 -8 5 -12 10 -9 6 4 8 11 5 16 -9 14 -15 11 -15 -7z"/>
<path d="M722 534 c4 -21 22 -23 26 -1 2 10 -3 17 -13 17 -10 0 -15 -6 -13
-16z"/>
<path d="M850 530 c0 -13 5 -20 13 -17 6 2 12 10 12 17 0 7 -6 15 -12 18 -8 2
-13 -5 -13 -18z"/>
<path d="M6712 1493 c3 -24 8 -28 33 -28 25 0 30 4 33 28 3 25 1 27 -33 27
-34 0 -36 -2 -33 -27z"/>
<path d="M6873 1501 c-13 -11 -23 -30 -23 -44 0 -16 -7 -26 -20 -30 -12 -3
-20 -14 -20 -27 0 -13 8 -24 20 -27 18 -5 20 -14 20 -78 0 -68 2 -75 27 -95
39 -30 87 -24 91 12 3 23 -1 27 -25 30 -27 3 -28 5 -31 66 l-3 62 31 0 c28 0
31 3 28 28 -2 21 -9 28 -30 30 -26 3 -28 7 -28 48 0 49 -5 52 -37 25z"/>
<path d="M7020 1489 c0 -27 3 -30 28 -27 21 2 28 9 30 31 3 24 0 27 -27 27
-28 0 -31 -3 -31 -31z"/>
<path d="M6355 1430 c-3 -5 -25 -7 -49 -4 -80 11 -125 -31 -113 -109 2 -17 0
-42 -6 -54 -7 -16 -7 -30 1 -48 7 -15 8 -27 2 -30 -18 -11 -10 -56 15 -80 20
-21 34 -25 85 -25 51 0 65 4 85 25 48 47 21 108 -52 120 -70 11 -83 15 -83 25
0 6 11 8 25 4 62 -16 115 25 115 89 0 24 5 48 10 53 6 6 8 18 4 27 -7 19 -29
23 -39 7z m-51 -56 c20 -8 21 -48 2 -63 -33 -28 -74 27 -44 57 14 14 20 14 42
6z m30 -214 c16 -15 -5 -30 -43 -30 -40 0 -62 15 -54 36 4 10 16 12 47 8 22
-4 45 -10 50 -14z"/>
<path d="M4442 859 l3 -571 225 1 225 0 3 55 3 56 -173 2 -173 3 -3 453 -2
452 175 0 175 0 0 60 0 60 -230 0 -230 0 2 -571z"/>
<path d="M5010 1375 l0 -55 220 0 220 0 0 -455 0 -455 -220 0 -220 0 0 -62 0
-63 272 2 c150 1 276 2 281 3 4 0 7 256 7 570 l0 570 -280 0 -280 0 0 -55z"/>
<path d="M5745 1421 c-44 -18 -60 -50 -60 -117 0 -56 3 -67 28 -91 38 -38 113
-40 151 -4 33 31 33 49 0 57 -19 5 -29 2 -36 -10 -14 -25 -55 -20 -74 9 -19
30 -12 90 12 99 26 10 51 7 64 -9 24 -29 66 -11 55 24 -12 40 -88 63 -140 42z"/>
<path d="M5972 1418 c-67 -33 -81 -143 -25 -200 100 -100 254 25 188 152 -27
52 -106 75 -163 48z m112 -90 c12 -49 -11 -88 -53 -88 -36 0 -55 22 -55 65 0
47 20 67 63 63 32 -3 37 -7 45 -40z"/>
<path d="M6447 1423 c-4 -3 -7 -57 -7 -120 l0 -113 29 0 29 0 4 80 c3 85 11
100 56 100 30 0 44 -38 41 -115 l-3 -60 33 -3 33 -3 -4 96 c-3 92 -4 98 -31
121 -31 26 -66 31 -100 13 -16 -9 -22 -9 -25 0 -4 12 -44 15 -55 4z"/>
<path d="M6717 1424 c-4 -4 -7 -58 -7 -120 0 -118 2 -125 47 -116 23 4 24 6
21 121 -3 116 -3 116 -28 119 -14 2 -29 0 -33 -4z"/>
<path d="M7020 1312 c0 -65 2 -121 5 -124 3 -3 17 -3 31 0 l25 4 -3 117 -3
116 -27 3 -28 3 0 -119z"/>
<path d="M7116 1421 c-3 -4 11 -48 30 -97 53 -132 60 -144 85 -139 12 3 23 6
24 7 2 2 23 54 48 116 47 116 47 129 0 120 -16 -3 -46 -61 -68 -133 -5 -15
-12 -3 -31 49 -13 39 -30 73 -36 78 -17 10 -46 10 -52 -1z"/>
<path d="M7408 1415 c-87 -49 -73 -198 22 -226 44 -13 107 -1 129 25 18 21
-21 51 -48 37 -37 -20 -91 -8 -91 21 0 4 34 8 75 8 60 0 77 3 82 16 8 22 -13
88 -37 109 -26 24 -98 29 -132 10z m83 -45 c36 -20 23 -40 -26 -40 -48 0 -62
19 -27 39 22 13 29 13 53 1z"/>
<path d="M4671 1201 c-8 -5 -11 -27 -9 -62 l3 -54 58 -3 57 -3 0 -164 0 -164
-57 -3 -58 -3 0 -115 0 -115 58 -3 57 -3 0 116 0 115 60 0 60 0 -2 233 -3 232
-106 2 c-58 1 -111 -2 -118 -6z"/>
<path d="M5010 1090 l0 -121 58 3 57 3 0 50 0 50 105 5 105 5 3 63 3 62 -166
0 -165 0 0 -120z"/>
<path d="M1775 1161 c-46 -21 -101 -79 -123 -130 -20 -49 -28 -231 -13 -303
18 -83 64 -147 131 -181 51 -26 62 -28 145 -25 93 4 137 19 183 61 20 19 22
29 22 134 l0 113 -115 0 c-108 0 -115 -1 -115 -20 0 -18 7 -20 85 -20 l86 0
-3 -92 -3 -92 -33 -19 c-42 -25 -147 -34 -196 -17 -54 17 -102 64 -122 117
-26 67 -26 259 -1 325 24 61 82 114 137 123 99 17 176 -20 212 -102 21 -47 58
-61 58 -23 0 28 -33 90 -62 117 -58 54 -192 71 -273 34z"/>
<path d="M2280 850 l0 -320 25 0 25 0 0 145 0 145 113 0 c174 0 217 -34 217
-172 0 -91 11 -118 49 -118 29 0 30 0 15 28 -8 16 -14 56 -14 102 0 92 -20
136 -73 166 l-38 21 31 13 c50 21 80 74 80 141 0 70 -27 115 -90 147 -40 20
-59 22 -192 22 l-148 0 0 -320z m300 267 c68 -24 101 -118 65 -187 -25 -48
-66 -62 -197 -68 l-118 -5 0 137 0 136 108 -1 c59 0 123 -5 142 -12z"/>
<path d="M2890 850 l0 -320 28 0 27 0 0 320 0 320 -27 0 -28 0 0 -320z"/>
<path d="M3130 850 l0 -320 128 0 c180 1 239 27 297 131 29 52 30 58 30 189 0
130 -1 137 -29 188 -58 103 -123 132 -302 132 l-124 0 0 -320z m264 268 c94
-28 146 -124 146 -268 0 -102 -22 -172 -68 -218 -47 -47 -97 -62 -206 -62
l-86 0 0 280 0 280 86 0 c48 0 105 -6 128 -12z"/>
<path d="M3740 850 l0 -320 128 0 c180 1 239 27 297 131 29 52 30 58 30 189 0
152 -11 186 -81 254 -54 52 -107 66 -251 66 l-123 0 0 -320z m257 268 c99 -24
153 -119 153 -268 0 -102 -22 -172 -68 -218 -47 -47 -97 -62 -206 -62 l-86 0
0 280 0 280 81 0 c44 0 101 -5 126 -12z"/>
<path d="M6170 905 l0 -166 43 1 c23 1 53 -1 67 -5 85 -22 150 95 105 190 -24
49 -88 70 -136 45 -18 -10 -19 -7 -19 45 0 54 0 55 -30 55 l-30 0 0 -165z
m156 -10 c26 -40 3 -105 -39 -105 -47 0 -73 62 -47 111 16 29 65 25 86 -6z"/>
<path d="M7363 908 l2 -163 33 -3 32 -3 0 71 c0 86 11 110 49 110 36 0 41 -13
41 -106 l0 -74 30 0 30 0 0 95 c0 88 -2 98 -25 120 -26 27 -72 33 -106 15 -18
-10 -19 -7 -19 45 l0 55 -35 0 -34 0 2 -162z"/>
<path d="M8080 1045 c0 -18 7 -26 24 -31 32 -8 46 2 46 32 0 21 -5 24 -35 24
-31 0 -35 -3 -35 -25z"/>
<path d="M8690 922 c0 -170 8 -195 63 -190 27 2 33 8 35 31 2 19 -1 27 -12 27
-14 0 -16 20 -16 140 l0 140 -35 0 -35 0 0 -148z"/>
<path d="M5714 946 c-29 -29 -34 -41 -34 -80 0 -26 7 -60 15 -76 32 -62 120
-77 171 -29 30 28 30 43 0 57 -19 8 -26 7 -39 -9 -47 -54 -112 25 -77 92 13
23 62 26 80 4 11 -13 43 -13 58 0 11 10 -13 47 -38 60 -50 26 -98 19 -136 -19z"/>
<path d="M5898 975 c-3 -3 15 -55 40 -116 l44 -111 -20 -55 -20 -54 35 3 34 3
58 145 c82 206 79 192 40 188 -31 -3 -35 -8 -59 -70 -15 -37 -29 -70 -32 -73
-3 -3 -17 28 -33 70 -25 68 -29 75 -54 75 -15 0 -30 -2 -33 -5z"/>
<path d="M6471 954 c-95 -79 -33 -234 88 -221 25 3 52 13 64 25 19 20 19 21 2
38 -14 14 -21 15 -36 6 -27 -17 -65 -15 -85 6 -17 16 -14 17 62 22 l79 5 3 30
c11 93 -104 151 -177 89z m100 -34 c38 -21 23 -40 -31 -40 -54 0 -62 10 -28
34 26 19 33 19 59 6z"/>
<path d="M6698 968 c-3 -7 -4 -60 -3 -118 l1 -105 32 -3 32 -3 0 74 c0 80 15
107 58 107 27 0 50 39 31 51 -19 12 -46 11 -69 -1 -13 -7 -21 -7 -25 0 -9 14
-52 12 -57 -2z"/>
<path d="M7097 973 c-4 -3 -7 -80 -7 -170 l0 -163 30 0 c30 0 30 0 30 56 0 50
2 55 18 49 57 -24 102 -11 133 37 16 26 19 45 16 87 -3 46 -9 59 -36 83 -34
30 -87 38 -110 16 -11 -10 -14 -10 -18 0 -5 13 -45 17 -56 5z m149 -78 c26
-40 3 -105 -39 -105 -32 0 -57 29 -57 66 0 62 64 88 96 39z"/>
<path d="M7607 973 c-3 -5 15 -57 40 -117 l45 -109 -21 -50 c-12 -27 -19 -52
-16 -56 2 -4 17 -6 33 -3 27 4 33 14 94 168 36 90 63 166 60 169 -10 10 -50 5
-59 -7 -5 -7 -20 -41 -33 -76 -12 -34 -25 -60 -28 -57 -3 3 -17 36 -32 73 -22
57 -29 67 -52 70 -14 2 -28 -1 -31 -5z"/>
<path d="M7885 955 c-47 -46 -26 -93 52 -120 21 -7 38 -19 38 -27 0 -19 -54
-23 -68 -4 -14 18 -57 11 -57 -8 0 -23 48 -58 87 -63 32 -4 45 0 71 22 54 45
35 114 -35 131 -34 8 -55 23 -47 35 8 14 36 11 55 -7 14 -13 20 -13 38 -2 27
17 26 22 -5 47 -38 30 -98 28 -129 -4z"/>
<path d="M8090 951 c-1 -17 -1 -70 -1 -118 l-1 -88 31 -3 32 -3 -3 118 -3 118
-27 3 c-25 3 -28 0 -28 -27z"/>
<path d="M8244 961 c-55 -34 -70 -115 -31 -172 43 -64 107 -77 159 -31 21 19
29 34 25 45 -8 21 -40 22 -57 2 -19 -22 -57 -19 -71 7 -15 28 -14 75 2 94 15
18 53 18 69 -1 15 -19 31 -19 55 -1 18 13 18 15 -12 45 -38 37 -90 42 -139 12z"/>
<path d="M8485 971 c-12 -5 -27 -16 -34 -25 -12 -15 -12 -19 2 -33 14 -15 19
-15 48 0 36 17 72 10 77 -17 3 -13 -6 -16 -51 -16 -69 0 -100 -22 -100 -70 0
-64 78 -101 133 -63 17 12 25 13 28 5 2 -7 15 -12 28 -12 24 0 24 2 24 89 0
79 -3 93 -23 116 -25 29 -94 43 -132 26z m95 -149 c0 -18 -26 -32 -57 -32 -31
0 -44 16 -26 33 9 10 83 9 83 -1z"/>
<path d="M6880 880 c0 -18 7 -20 75 -20 68 0 75 2 75 20 0 18 -7 20 -75 20
-68 0 -75 -2 -75 -20z"/>
<path d="M5227 743 c-4 -3 -7 -30 -7 -60 l0 -53 -105 0 -105 0 0 -60 0 -60
165 0 165 0 0 120 0 120 -53 0 c-30 0 -57 -3 -60 -7z"/>
<path d="M6402 604 c-14 -10 -22 -25 -22 -45 0 -22 -5 -29 -20 -29 -27 0 -28
-46 -1 -53 16 -4 19 -15 20 -77 1 -91 16 -112 75 -108 36 3 41 6 41 28 0 20
-5 25 -25 25 -24 0 -25 3 -28 68 l-3 67 31 0 c27 0 31 3 28 23 -2 16 -11 23
-30 25 -26 3 -28 7 -28 48 0 48 -5 52 -38 28z"/>
<path d="M5751 531 c-36 -10 -65 -54 -57 -86 5 -20 20 -32 62 -51 57 -25 67
-46 25 -52 -13 -2 -31 4 -41 13 -12 11 -26 14 -39 10 -28 -9 -26 -21 5 -50 58
-54 164 -19 164 53 0 35 -23 57 -76 75 -21 8 -39 18 -39 23 0 14 44 17 60 4 8
-6 23 -9 35 -5 62 20 -34 84 -99 66z"/>
<path d="M6205 533 c-32 -8 -65 -44 -65 -73 0 -24 26 -60 44 -60 3 0 22 -7 41
-14 25 -11 33 -19 29 -30 -9 -22 -47 -20 -69 4 -13 15 -22 17 -36 9 -47 -25 7
-79 78 -79 33 0 50 6 68 25 46 46 24 103 -49 128 -22 8 -42 19 -44 25 -5 15
50 16 65 1 8 -8 17 -8 33 1 l23 12 -24 23 c-26 24 -62 35 -94 28z"/>
<path d="M6600 527 c-90 -31 -107 -166 -28 -221 30 -21 103 -20 139 1 33 20
35 26 13 44 -12 10 -22 10 -50 0 -30 -11 -39 -10 -59 3 -42 28 -29 36 55 36
79 0 80 0 80 25 0 87 -70 139 -150 112z m76 -64 c17 -17 16 -18 -30 -21 -55
-4 -64 1 -46 23 17 20 54 19 76 -2z"/>
<path d="M6895 532 c-11 -2 -26 -9 -32 -14 -9 -7 -13 -7 -13 1 0 6 -14 11 -30
11 l-31 0 3 -117 3 -118 26 -3 c27 -3 27 -3 31 78 3 67 7 84 23 96 24 18 30
18 49 -2 12 -11 16 -36 16 -95 l0 -79 30 0 30 0 0 78 c0 65 3 82 19 96 15 14
24 15 40 6 19 -10 21 -20 21 -95 l0 -85 30 0 30 0 0 94 c0 84 -3 98 -23 121
-27 32 -87 37 -117 10 -10 -9 -21 -12 -24 -7 -9 15 -58 29 -81 24z"/>
<path d="M7245 529 c-59 -17 -75 -82 -29 -118 15 -12 33 -21 41 -21 8 0 23 -5
34 -11 16 -8 18 -13 8 -25 -16 -20 -45 -17 -67 6 -19 20 -20 20 -42 2 l-22
-18 32 -27 c59 -50 151 -31 165 33 9 42 -13 73 -64 88 -45 14 -60 30 -40 43 9
5 23 2 38 -7 19 -13 28 -14 49 -4 25 11 25 11 6 31 -26 26 -72 38 -109 28z"/>
<path d="M5880 525 c0 -2 20 -54 45 -114 l45 -110 -20 -51 c-11 -28 -20 -53
-20 -55 0 -3 15 -5 33 -5 l32 0 63 158 c34 86 62 163 62 170 0 7 -13 12 -29
12 -27 0 -32 -5 -50 -57 -39 -107 -35 -105 -67 -20 -28 75 -30 77 -61 77 -18
0 -33 -2 -33 -5z"/>
</g>
</svg>
